<?xml version="1.0" encoding="utf-8"?>
<svg version="1.1"
	 xmlns="http://www.w3.org/2000/svg" xmlns:xlink="http://www.w3.org/1999/xlink" xmlns:a="http://ns.adobe.com/AdobeSVGViewerExtensions/3.0/"
	 x="0px" y="0px" width="301px" height="301px" viewBox="0.5 -0.5 301 301"
	 overflow="visible" enable-background="new 0.5 -0.5 301 301" xml:space="preserve">

<path display="none" d="M39.316,0C17.637,0,0,17.637,0,39.316v222.77c0,10.898,3.851,20.275,11.445,27.871
	c7.382,7.381,17.28,11.445,27.871,11.445h222.77c10.592,0,20.489-4.064,27.87-11.445c7.483-8.02,11.445-17.662,11.445-27.871V39.316
	c0-9.88-3.962-19.348-11.457-27.378C282.251,4.244,272.353,0,262.086,0H39.316z"/>
<path display="none" fill="#FFFFFF" d="M39.316,10.08c-7.937,0-15.314,2.917-21.335,8.437c-5.415,5.415-8.405,12.807-8.405,20.799
	v222.77c0,7.936,2.917,15.313,8.436,21.335c5.991,5.488,13.368,8.405,21.304,8.405h222.77c16.12,0,29.235-13.342,29.235-29.74
	V39.316c0-7.992-2.99-15.384-8.421-20.814c-5.431-5.431-12.823-8.422-20.814-8.422H39.316z"/>
<path fill="none" stroke="#000000" stroke-width="14" stroke-miterlimit="10" d="M38.426,8.504c-7.985,0-15.408,2.936-21.465,8.489
	c-5.447,5.448-8.457,12.885-8.457,20.926v224.128c0,7.984,2.935,15.407,8.488,21.465c6.027,5.522,13.449,8.457,21.434,8.457h224.129
	c16.219,0,29.414-13.423,29.414-29.922V37.918c0-8.041-3.009-15.478-8.473-20.941c-5.463-5.463-12.901-8.473-20.941-8.473H38.426z"
	/>
<path d="M205.217,258.65c-0.717,0-1.562-0.514-2.352-1.477c-1.675-2.042-3.331-6.567-0.646-10.019
	c0.799-0.999,1.442-1.687,2.01-2.293c0.891-0.952,1.594-1.704,2.491-3.201l0.049-0.068c6.318-7.37,13.813-17.15,14.649-19.461
	c-0.188,0.093-0.469,0.256-0.881,0.542c-1.104,0.859-2.342,1.908-3.654,3.018c-3.989,3.375-8.953,7.576-15.055,10.627
	c-2.023,1.012-17.059,8.117-20.384,8.117c-2.842,0.179-5.695,0.689-8.211,1.14c-4.744,0.849-8.488,1.519-10.286-0.278
	c-1.751-1.156-2.546-2.953-2.165-4.998c0.512-2.739,3.064-5.286,5.938-5.924c2.761-0.923,3.662-1.096,5.458-1.44
	c1.094-0.209,2.593-0.496,5.122-1.08c2.905-0.67,3.69-1.037,4.99-1.644c1.605-0.75,4.025-1.88,11.957-4.347
	c2.558-3.311,9.245-8.364,13.689-11.722c0.353-0.267,0.702-0.531,1.039-0.786c-8.364,4.143-21.405,8.457-23.153,7.869
	c-1.363-0.16-3.225-0.141-5.381-0.117c-3.575,0.038-8.029,0.087-12.212-0.878c-2.986-0.896-4.448-2.443-6.141-4.236
	c-1.276-1.351-2.722-2.882-5.104-4.398c-3.292-1.88-7.573-4.983-8.715-6.696l-0.146-0.219l0.098-0.244
	c1.059-2.648,2.645-4.218,4.701-5.758c5.408-4.162,13.401,3.311,17.243,6.901c0.583,0.545,1.181,1.104,1.539,1.393
	c0.973-0.512,4.416-1.063,16.788-1.338c1.516-0.235,18.019-12.418,19.213-13.825c0.17-0.455,0.415-1.108,0.601-1.648
	c-0.116,0.085-0.241,0.173-0.373,0.261c-7.132,4.754-19.891,4.667-25.341,4.626l-1.146-0.006c-2.738,0-9.757-5.315-17.968-11.735
	c-1.694-1.325-3.244-2.537-4.508-3.485c-3.603-2.802-3.603-5.058-3.603-7.914c0-0.938,0-1.909-0.123-3.015
	c-0.003-4.956-0.003-8.533,1.896-13.458c-2.614-1.69-2.647-3.411,1.673-13.011c1.431-3.066,2.097-5.422,2.685-7.502
	c0.836-2.958,1.496-5.293,3.969-7.767c0.626-0.733,1.042-1.257,1.34-1.632c0.808-1.019,0.887-1.077,2.115-1.564
	c0.489-0.193,1.186-0.47,2.24-0.938c4.371-1.316,7.185-1.87,11.078-2.636l2.132-0.422c3.707-1.24,6.647-2.39,9.49-3.502
	c2.856-1.118,5.81-2.273,9.603-3.538c1.747-0.524,3.09-1.033,4.389-1.526c2.393-0.907,4.459-1.69,7.815-2.025
	c2.807-0.278,5.037,0.353,7.194,0.964c1.819,0.516,3.699,1.049,5.96,1.049c14.288,0.506,21.476-2.79,34.394-10.438l0.077-0.141
	l2.13-0.005l-1.17,0.693c0.07,0.112,0.152,0.242,0.236,0.375c9.448,14.957,13.067,34.29,10.188,54.438l-0.037,0.259l-0.234,0.117
	c-0.935,0.467-1.818,0.883-2.659,1.278c-3.611,1.7-6.464,3.042-9.266,6.646c-5.463,7.806-7.122,14.115-9.041,21.421
	c-1.75,6.66-3.733,14.208-9.055,24.368c-1.146,2.007-2.292,3.075-3.401,4.108c-0.92,0.857-1.79,1.667-2.673,2.993
	c-1.667,2.499-2.713,4.628-3.725,6.688c-1.391,2.83-2.705,5.503-5.392,8.489c-1.262,1.515-2.423,2.676-3.546,3.799
	c-1.107,1.107-2.252,2.252-3.498,3.747c-1.559,1.562-3.213,3.605-4.672,5.409c-2.247,2.776-3.593,4.401-4.531,4.79
	c-1.032,0.849-2.015,2.282-2.966,3.669c-1.341,1.954-2.607,3.8-4.157,4.42C205.635,258.604,205.432,258.65,205.217,258.65z
	 M171.285,169.97c7.474,2.698,12.555,7.19,13.769,8.332c7.125-3.926,10.614-4.786,13.171-5.417c2.167-0.534,3.599-0.886,6.087-2.923
	c4.152-2.498,4.387-3.392,5.913-9.206c0.275-1.05,0.591-2.253,0.978-3.646c1.239-3.471-0.363-4.91-3.27-7.522
	c-2.554-2.294-6.031-5.418-9.092-11.376c-10.401,3.813-16.656,2.809-20.816,2.141c-0.607-0.098-1.166-0.188-1.683-0.252
	c-0.131,0.076-0.526,0.937-0.875,1.696c-1.252,2.73-3.55,7.739-10.642,13.736C168.662,159.675,170.882,168.299,171.285,169.97z"/>
<path d="M100.028,45.944c0.717,0,1.562,0.514,2.352,1.477c1.675,2.042,3.331,6.567,0.646,10.019
	c-0.799,0.999-1.442,1.687-2.01,2.293c-0.891,0.952-1.594,1.704-2.491,3.201l-0.049,0.068c-6.318,7.37-13.813,17.15-14.649,19.461
	c0.188-0.093,0.469-0.256,0.881-0.542c1.104-0.859,2.342-1.908,3.654-3.018c3.989-3.375,8.953-7.576,15.055-10.627
	c2.023-1.012,17.059-8.117,20.384-8.117c2.842-0.179,5.695-0.689,8.211-1.14c4.744-0.849,8.488-1.519,10.286,0.278
	c1.751,1.156,2.546,2.953,2.165,4.998c-0.512,2.739-3.064,5.286-5.938,5.924c-2.761,0.923-3.662,1.096-5.458,1.44
	c-1.094,0.209-2.593,0.496-5.122,1.08c-2.905,0.67-3.69,1.037-4.99,1.644c-1.605,0.75-4.025,1.88-11.957,4.347
	c-2.558,3.311-9.245,8.364-13.689,11.722c-0.353,0.267-0.702,0.531-1.039,0.786c8.364-4.143,21.405-8.457,23.153-7.869
	c1.363,0.16,3.225,0.141,5.381,0.117c3.575-0.038,8.029-0.087,12.212,0.878c2.986,0.896,4.448,2.443,6.141,4.236
	c1.276,1.351,2.722,2.882,5.104,4.398c3.292,1.88,7.573,4.983,8.715,6.696l0.146,0.219l-0.098,0.244
	c-1.059,2.648-2.645,4.218-4.701,5.758c-5.408,4.162-13.401-3.311-17.243-6.901c-0.583-0.545-1.181-1.104-1.539-1.393
	c-0.973,0.512-4.416,1.063-16.788,1.338c-1.516,0.235-18.019,12.418-19.213,13.825c-0.17,0.455-0.415,1.108-0.601,1.648
	c0.116-0.085,0.241-0.173,0.373-0.261c7.132-4.754,19.891-4.667,25.341-4.626l1.146,0.006c2.738,0,9.757,5.315,17.968,11.735
	c1.694,1.325,3.244,2.537,4.508,3.485c3.603,2.802,3.603,5.058,3.603,7.914c0,0.938,0,1.909,0.123,3.015
	c0.003,4.956,0.003,8.533-1.896,13.458c2.614,1.69,2.647,3.411-1.673,13.011c-1.431,3.066-2.097,5.422-2.685,7.502
	c-0.836,2.958-1.496,5.293-3.969,7.767c-0.626,0.733-1.042,1.257-1.34,1.632c-0.808,1.019-0.887,1.077-2.115,1.564
	c-0.489,0.193-1.186,0.47-2.24,0.938c-4.371,1.316-7.185,1.87-11.078,2.636l-2.132,0.422c-3.707,1.24-6.647,2.39-9.49,3.502
	c-2.856,1.118-5.81,2.273-9.603,3.538c-1.747,0.524-3.09,1.033-4.389,1.526c-2.393,0.907-4.459,1.69-7.815,2.025
	c-2.807,0.278-5.037-0.353-7.194-0.964c-1.819-0.516-3.699-1.049-5.96-1.049c-14.288-0.506-21.476,2.79-34.394,10.438l-0.077,0.141
	l-2.13,0.005l1.17-0.693c-0.07-0.112-0.152-0.242-0.236-0.375c-9.448-14.957-13.067-34.29-10.188-54.438l0.037-0.259l0.234-0.117
	c0.935-0.467,1.818-0.883,2.659-1.278c3.611-1.7,6.464-3.042,9.266-6.646c5.463-7.806,7.122-14.115,9.041-21.421
	c1.75-6.66,3.733-14.208,9.055-24.368c1.146-2.007,2.292-3.075,3.401-4.108c0.92-0.857,1.79-1.667,2.673-2.993
	c1.667-2.499,2.713-4.628,3.725-6.688c1.391-2.83,2.705-5.503,5.392-8.489c1.262-1.515,2.423-2.676,3.546-3.799
	c1.107-1.107,2.252-2.252,3.498-3.747c1.559-1.562,3.213-3.605,4.672-5.409c2.247-2.776,3.593-4.401,4.531-4.79
	c1.032-0.849,2.015-2.282,2.966-3.669c1.341-1.954,2.607-3.8,4.157-4.42C99.61,45.99,99.813,45.944,100.028,45.944z M133.96,134.624
	c-7.474-2.698-12.555-7.19-13.769-8.332c-7.125,3.926-10.614,4.786-13.171,5.417c-2.167,0.534-3.599,0.886-6.087,2.923
	c-4.152,2.498-4.387,3.392-5.913,9.206c-0.275,1.05-0.591,2.253-0.978,3.646c-1.239,3.471,0.363,4.91,3.27,7.522
	c2.554,2.294,6.031,5.418,9.092,11.376c10.401-3.813,16.656-2.809,20.816-2.141c0.607,0.098,1.166,0.188,1.683,0.252
	c0.131-0.076,0.526-0.937,0.875-1.696c1.252-2.73,3.55-7.739,10.642-13.736C136.583,144.919,134.363,136.295,133.96,134.624z"/>
</svg>
